<svg width="64" height="83" viewBox="0 0 64 83" fill="none" xmlns="http://www.w3.org/2000/svg">
<path d="M52.5 41.5V41H52H42C40.5603 41 39.1975 40.1345 38.1723 38.615C37.1492 37.0986 36.5 34.9757 36.5 32.6071V8.89286C36.5 6.52429 37.1492 4.40142 38.1723 2.88498C39.1975 1.36551 40.5603 0.5 42 0.5H58C59.4397 0.5 60.8025 1.36551 61.8277 2.88498C62.8508 4.40142 63.5 6.52429 63.5 8.89286V53.3571C63.5 61.4599 61.2851 68.7702 57.7293 74.0406C54.1714 79.3138 49.3087 82.5 44 82.5H43C42.3841 82.5 41.7716 82.1334 41.291 81.4212C40.812 80.7112 40.5 79.7001 40.5 78.5536V69.6607C40.5 68.5141 40.812 67.5031 41.291 66.7931C41.7716 66.0809 42.3841 65.7143 43 65.7143H44C46.4231 65.7143 48.5602 64.2544 50.0692 62.0178C51.5803 59.7781 52.5 56.7135 52.5 53.3571V41.5ZM16.5 41.5V41H16H6C4.56026 41 3.19748 40.1345 2.17229 38.615C1.14916 37.0986 0.5 34.9757 0.5 32.6071V8.89286C0.5 6.52429 1.14916 4.40142 2.17229 2.88498C3.19748 1.36551 4.56026 0.5 6 0.5H22C23.4397 0.5 24.8025 1.36551 25.8277 2.88498C26.8508 4.40142 27.5 6.52429 27.5 8.89286V53.3571C27.5 61.4599 25.2851 68.7702 21.7293 74.0406C18.1714 79.3138 13.3087 82.5 8 82.5H7C6.38408 82.5 5.77161 82.1334 5.29104 81.4212C4.81205 80.7112 4.5 79.7001 4.5 78.5536V69.6607C4.5 68.5141 4.81205 67.5031 5.29104 66.7931C5.77161 66.0809 6.38407 65.7143 7 65.7143H8C10.4231 65.7143 12.5602 64.2544 14.0692 62.0178C15.5803 59.7781 16.5 56.7135 16.5 53.3571V41.5Z" stroke="#78A885"/>
</svg>
