  <svg width="64" height="83" viewBox="0 0 64 83" fill="none" xmlns="http://www.w3.org/2000/svg">
    <path d="M47.5 41.5V42H48H58C59.4397 42 60.8025 42.8655 61.8277 44.385C62.8508 45.9014 63.5 48.0243 63.5 50.3929V74.1071C63.5 76.4757 62.8508 78.5986 61.8277 80.115C60.8025 81.6345 59.4397 82.5 58 82.5H42C40.5603 82.5 39.1975 81.6345 38.1723 80.115C37.1492 78.5986 36.5 76.4757 36.5 74.1071V29.6429C36.5 21.5401 38.7149 14.2298 42.2707 8.95945C45.8286 3.68625 50.6913 0.5 56 0.5H57C57.6159 0.5 58.2284 0.86657 58.709 1.57884C59.188 2.28879 59.5 3.29984 59.5 4.44643V13.3393C59.5 14.4859 59.188 15.4969 58.709 16.2069C58.2284 16.9191 57.6159 17.2857 57 17.2857H56C53.5769 17.2857 51.4398 18.7456 49.9308 20.9822C48.4197 23.2219 47.5 26.2864 47.5 29.6429V41.5ZM11.5 41.5V42H12H22C23.4397 42 24.8025 42.8655 25.8277 44.385C26.8508 45.9014 27.5 48.0243 27.5 50.3929V74.1071C27.5 76.4757 26.8508 78.5986 25.8277 80.115C24.8025 81.6345 23.4397 82.5 22 82.5H6C4.56026 82.5 3.19748 81.6345 2.17229 80.115C1.14916 78.5986 0.5 76.4757 0.5 74.1071V29.6429C0.5 21.5401 2.71486 14.2298 6.27073 8.95945C9.82856 3.68625 14.6913 0.5 20 0.5H21C21.6159 0.5 22.2284 0.86657 22.709 1.57884C23.188 2.28879 23.5 3.29984 23.5 4.44643V13.3393C23.5 14.4859 23.188 15.4969 22.709 16.2069C22.2284 16.9191 21.6159 17.2857 21 17.2857H20C17.5769 17.2857 15.4398 18.7456 13.9308 20.9822C12.4197 23.2219 11.5 26.2864 11.5 29.6429V41.5Z" stroke="#78A885"/>
     </svg>